<svg width="212" height="25" viewBox="0 0 212 25" fill="none" xmlns="http://www.w3.org/2000/svg">
<g clip-path="url(#clip0_30_39)">
<path d="M73.2923 24.5041H69.1114V18.8853C69.1114 17.7349 68.7175 16.7682 67.9298 15.9853C67.1421 15.2049 66.1676 14.8122 65.0062 14.8122H62.3628V24.5041H58.1844V0.0881042H62.3628V10.646H65.0062C66.1676 10.646 67.1421 10.2558 67.9298 9.47286C68.7175 8.69248 69.1114 7.7258 69.1114 6.57033V0.0881042H73.2923V6.56278C73.2923 9.0298 72.3632 11.084 70.505 12.7278C72.3632 14.3717 73.2923 16.4284 73.2923 18.8954V24.5041Z" fill="white"/>
<path d="M95.3633 24.5041H90.9198L90.0437 22.095C88.3926 24.0308 86.287 25 83.7269 25C81.4143 25 79.4576 24.197 77.857 22.5909C76.2563 20.9848 75.4585 19.0414 75.4585 16.7581C75.4585 15.0086 75.9533 13.4277 76.943 12.0179C77.9352 10.6107 79.2531 9.60628 80.9068 9.00967C81.8763 8.65975 82.8256 8.48605 83.7547 8.48605C85.5094 8.48605 87.0924 8.98449 88.5062 9.98137C89.92 10.9808 90.9249 12.3024 91.5258 13.9487L95.3633 24.5066V24.5041ZM87.8422 16.7405C87.8422 15.2955 87.2539 14.1678 86.0774 13.3622C85.3983 12.8864 84.6131 12.6498 83.7244 12.6498C82.2803 12.6498 81.1643 13.2288 80.3817 14.3868C79.8868 15.1093 79.6394 15.8947 79.6394 16.7405C79.6394 18.1653 80.2277 19.2831 81.4042 20.0861C82.1263 20.582 82.9013 20.8287 83.7269 20.8287C84.863 20.8287 85.8325 20.4335 86.6379 19.638C87.4433 18.8425 87.8447 17.8784 87.8447 16.7405H87.8422Z" fill="white"/>
<path d="M125.89 24.5041H121.711V16.7153C121.711 15.585 121.312 14.6259 120.52 13.8354C119.724 13.045 118.76 12.6498 117.626 12.6498C116.099 12.6498 114.932 13.2967 114.127 14.5907V24.5041H109.949V16.7153C109.949 15.6077 109.545 14.6536 108.737 13.8531C107.929 13.0525 106.964 12.6523 105.846 12.6523C104.727 12.6523 103.733 13.0475 102.925 13.838C102.117 14.6284 101.713 15.5875 101.713 16.7178V24.5066H97.5345V16.7128C97.5345 14.4144 98.3399 12.466 99.9507 10.875C101.561 9.28404 103.521 8.48856 105.833 8.48856C108.146 8.48856 110.085 9.30167 111.716 10.9279C113.347 9.30167 115.306 8.48856 117.598 8.48856C119.891 8.48856 121.87 9.28404 123.481 10.875C125.092 12.466 125.895 14.4144 125.895 16.7128V24.5066L125.89 24.5041Z" fill="white"/>
<path d="M174.571 16.7103C174.571 19.0112 173.771 20.9621 172.173 22.5657C170.572 24.1693 168.618 24.9698 166.305 24.9698C163.993 24.9698 162.006 24.1743 160.408 22.5808C158.807 20.9898 158.009 19.0313 158.009 16.7103C158.009 14.3893 158.814 12.461 160.425 10.8725C162.036 9.28154 163.995 8.48605 166.308 8.48605C168.62 8.48605 170.575 9.28154 172.175 10.8725C173.773 12.4635 174.574 14.4119 174.574 16.7103H174.571ZM170.39 16.7103C170.39 15.6027 169.989 14.6511 169.183 13.8506C168.378 13.0526 167.419 12.6523 166.305 12.6523C165.192 12.6523 164.2 13.0475 163.397 13.838C162.591 14.6259 162.187 15.585 162.187 16.7128C162.187 17.8406 162.589 18.8022 163.397 19.6028C164.2 20.4008 165.169 20.8035 166.305 20.8035C167.441 20.8035 168.406 20.4033 169.201 19.6028C169.994 18.8022 170.393 17.8406 170.393 16.7128L170.39 16.7103Z" fill="white"/>
<path d="M193.299 16.7078C193.299 19.0087 192.499 20.9621 190.901 22.5632C189.3 24.1667 187.346 24.9698 185.034 24.9698C182.721 24.9698 180.736 24.1743 179.138 22.5808C177.538 20.9898 176.737 19.0313 176.737 16.7103C176.737 14.3893 177.543 12.461 179.151 10.8725C180.762 9.28154 182.721 8.48605 185.034 8.48605C186.498 8.48605 187.861 8.83597 189.121 9.53579V0.0881042H193.299V16.7078ZM189.121 16.7128C189.121 15.6052 188.717 14.6536 187.912 13.8531C187.106 13.0551 186.147 12.6548 185.031 12.6548C183.915 12.6548 182.928 13.05 182.123 13.8405C181.317 14.6284 180.916 15.5876 180.916 16.7153C180.916 17.8431 181.317 18.8048 182.123 19.6053C182.928 20.4033 183.897 20.8061 185.031 20.8061C186.165 20.8061 187.132 20.4058 187.927 19.6053C188.72 18.8048 189.118 17.8431 189.118 16.7153L189.121 16.7128Z" fill="white"/>
<path d="M212 16.7002C212 17.1105 211.97 17.5209 211.907 17.9287H199.803C200.071 18.7947 200.566 19.4869 201.288 20.0131C202.01 20.5392 202.825 20.7985 203.734 20.7985C204.991 20.7985 206.034 20.3152 206.86 19.346L209.397 22.7117C207.809 24.2146 205.92 24.9673 203.731 24.9673C201.399 24.9673 199.432 24.1718 197.834 22.5783C196.233 20.9873 195.435 19.0288 195.435 16.7078C195.435 14.3868 196.241 12.4584 197.849 10.87C199.46 9.27901 201.419 8.48352 203.731 8.48352C206.044 8.48352 207.998 9.27901 209.599 10.8675C211.197 12.4559 211.997 14.3993 211.997 16.6977L212 16.7002ZM207.324 14.8122C206.562 13.3723 205.362 12.6523 203.734 12.6523C202.106 12.6523 200.876 13.3748 200.111 14.8122H207.324Z" fill="white"/>
<path d="M153.273 19.3812C152.47 20.3277 151.447 20.801 150.208 20.801C149.072 20.801 148.102 20.4008 147.297 19.6002C146.491 18.7997 146.09 17.8381 146.09 16.7103C146.09 15.5825 146.491 14.6234 147.297 13.8354C148.102 13.045 149.072 12.6498 150.208 12.6498C151.404 12.6498 152.404 13.0828 153.21 13.9462L155.719 10.6006C154.151 9.18838 152.313 8.48352 150.208 8.48352C147.895 8.48352 145.933 9.27901 144.325 10.87C143.492 11.6932 142.876 12.612 142.474 13.6265L148.026 24.7055C148.716 24.8792 149.443 24.9673 150.208 24.9673C152.417 24.9673 154.325 24.1944 155.934 22.6513L153.27 19.3812H153.273Z" fill="white"/>
<path d="M138.326 8.70506C137.69 8.55905 136.7 8.48353 135.999 8.48353C134.514 8.48353 133.782 8.83345 131.558 9.53328V0.0931396H128.222V16.7078C128.222 19.0288 128.924 20.9873 130.522 22.5783C132.123 24.1718 134.039 24.9698 136.372 24.9698C138.705 24.9698 140.614 24.1693 142.212 22.5657C142.997 21.7803 143.575 20.9093 143.974 19.9577L138.324 8.70758L138.326 8.70506ZM139.218 19.6002C138.422 20.3982 137.458 20.801 136.324 20.801C135.191 20.801 134.219 20.4008 133.413 19.6002C132.608 18.7997 132.206 17.8381 132.206 16.7103C132.206 15.5825 132.608 14.6234 133.413 13.8355C134.219 13.045 135.188 12.6498 136.324 12.6498C137.46 12.6498 138.4 13.05 139.202 13.848C140.008 14.6486 140.409 15.6001 140.409 16.7078C140.409 17.8154 140.01 18.7972 139.218 19.5977V19.6002Z" fill="white"/>
<path d="M15.4765 0.337328C14.5146 0.113282 13.5047 0 12.4443 0C8.97787 0 6.03658 1.19575 3.62296 3.58222C1.20681 5.9712 0 8.88883 0 12.3376C0 15.7864 1.19924 18.7569 3.60024 21.1434C5.99871 23.5324 8.94758 24.7256 12.4468 24.7256C15.9461 24.7256 18.847 23.5223 21.248 21.1182C22.4346 19.9325 23.3258 18.616 23.9242 17.1735L15.4765 0.337328ZM16.7868 16.6776C15.5926 17.8758 14.146 18.4775 12.4443 18.4775C10.7426 18.4775 9.28589 17.8784 8.07908 16.6776C6.87226 15.4768 6.26886 14.0318 6.26886 12.3376C6.26886 10.6434 6.87226 9.20854 8.07908 8.02538C9.28589 6.84221 10.7426 6.25063 12.4443 6.25063C14.146 6.25063 15.5573 6.84976 16.7641 8.04803C17.9734 9.24882 18.5743 10.6787 18.5743 12.3376C18.5743 13.9966 17.9785 15.4743 16.7868 16.6776Z" fill="white"/>
<path d="M42.0718 3.58222C39.6708 1.19575 36.7371 0 33.2732 0C29.8093 0 26.863 1.19575 24.4468 3.58222C23.1845 4.83083 22.2554 6.22546 21.652 7.76609L29.9558 24.3253C31.001 24.5897 32.1043 24.7281 33.2707 24.7281C36.7371 24.7281 39.6708 23.5248 42.0693 21.1207C44.4678 18.7192 45.667 15.7915 45.667 12.3376C45.667 8.8838 44.4678 5.96868 42.0693 3.58222H42.0718ZM37.6132 16.6776C36.4215 17.8758 34.9724 18.4775 33.2707 18.4775C31.569 18.4775 30.1098 17.8784 28.9029 16.6776C27.6961 15.4768 27.0927 14.0318 27.0927 12.3376C27.0927 10.6434 27.6961 9.20854 28.9029 8.02537C30.1098 6.84221 31.5665 6.25063 33.2707 6.25063C34.9749 6.25063 36.3811 6.84976 37.588 8.04803C38.7948 9.24882 39.3982 10.6787 39.3982 12.3376C39.3982 13.9966 38.8023 15.4743 37.6107 16.6776H37.6132Z" fill="white"/>
</g>
<defs>
<clipPath id="clip0_30_39">
<rect width="212" height="25" fill="white"/>
</clipPath>
</defs>
</svg>
